<?xml version="1.0" encoding="UTF-8"?>
<svg version="1.1" xmlns="http://www.w3.org/2000/svg" width="148" height="129">
<path d="M0 0 C48.84 0 97.68 0 148 0 C148 42.57 148 85.14 148 129 C99.16 129 50.32 129 0 129 C0 86.43 0 43.86 0 0 Z " fill="#FEFEDC" transform="translate(0,0)"/>
<path d="M0 0 C2.475 0.495 2.475 0.495 5 1 C4.33333333 3.66666667 3.66666667 6.33333333 3 9 C3.73605469 8.96519531 4.47210938 8.93039063 5.23046875 8.89453125 C6.69419922 8.85392578 6.69419922 8.85392578 8.1875 8.8125 C9.15042969 8.77769531 10.11335938 8.74289063 11.10546875 8.70703125 C15.68900751 9.17095218 18.10379322 11.0182095 21.16796875 14.375 C21.83441406 15.24125 22.50085938 16.1075 23.1875 17 C23.86167969 17.86625 24.53585938 18.7325 25.23046875 19.625 C28.15795889 23.55416999 29.26965636 25.93811862 29.65625 30.8671875 C29.93209127 33.10075147 29.93209127 33.10075147 31.0078125 35.43359375 C33.42949402 41.6975495 32.55335744 48.31224019 30.125 54.4375 C28.83581934 57.33576911 27.43134475 60.169548 26 63 C27.98 64.32 29.96 65.64 32 67 C30.6302836 70.99500618 28.74277578 73.80009492 26 77 C25.39414063 76.7834375 24.78828125 76.566875 24.1640625 76.34375 C15.72113868 73.53810147 8.70967741 73.5129819 0 75 C-1.485 74.505 -1.485 74.505 -3 74 C-9.80927548 73.51362318 -15.51151239 74.99620235 -22 77 C-23.98 74.36 -25.96 71.72 -28 69 C-26.11656068 65.23312136 -25.30867531 64.20578354 -22 62 C-22.34933594 61.31292969 -22.69867188 60.62585938 -23.05859375 59.91796875 C-23.51363281 59.01691406 -23.96867187 58.11585937 -24.4375 57.1875 C-24.88996094 56.29417969 -25.34242187 55.40085938 -25.80859375 54.48046875 C-27.62711481 50.69436753 -28.15899352 47.78694615 -28.1875 43.625 C-28.20167969 42.68914063 -28.21585938 41.75328125 -28.23046875 40.7890625 C-27.98554614 37.82508383 -27.14060235 35.72577017 -26 33 C-25.979375 31.824375 -25.95875 30.64875 -25.9375 29.4375 C-25.18868244 22.01996755 -18.71298544 15.64681507 -13.59765625 10.65625 C-10.38230025 8.60615835 -8.46394543 8.5840024 -4.6875 8.75 C-3.61886719 8.78609375 -2.55023438 8.8221875 -1.44921875 8.859375 C-0.23685547 8.92898437 -0.23685547 8.92898437 1 9 C1 7.68 1 6.36 1 5 C0.34 5 -0.32 5 -1 5 C-0.67 3.35 -0.34 1.7 0 0 Z " fill="#272E70" transform="translate(73,16)"/>
<path d="M0 0 C1.03253906 -0.00644531 2.06507812 -0.01289062 3.12890625 -0.01953125 C7.72962073 0.04576921 10.66797687 0.12043151 14.65625 2.5390625 C17.79954777 6.09525108 17.83004517 8.75839036 17.79296875 13.36328125 C17.36344199 16.6792278 15.89075646 18.37487627 13.5 20.625 C9.51260829 22.61869586 4.57224905 21.98501205 0.1875 22.0625 C-0.85857422 22.10826172 -1.90464844 22.15402344 -2.98242188 22.20117188 C-10.46545399 22.31072613 -10.46545399 22.31072613 -13.32324219 20.41650391 C-15.82287955 17.60731117 -17.19296248 14.87652875 -17.125 11.125 C-17.13789062 10.4134375 -17.15078125 9.701875 -17.1640625 8.96875 C-14.52537974 -0.34424797 -8.47827684 -0.26461538 0 0 Z " fill="#28374E" transform="translate(74.5,39.375)"/>
<path d="M0 0 C1.18916016 -0.03738281 2.37832031 -0.07476562 3.60351562 -0.11328125 C12.38764515 -0.20205965 12.38764515 -0.20205965 16.30078125 2.62109375 C16.92339844 3.52988281 17.54601562 4.43867187 18.1875 5.375 C18.79335937 6.11621094 19.39921875 6.85742188 20.0234375 7.62109375 C20.53132813 8.34425781 21.03921875 9.06742188 21.5625 9.8125 C22.34753906 10.89337891 22.34753906 10.89337891 23.1484375 11.99609375 C24.57312867 15.25788668 24.19947805 16.98726234 23.1875 20.375 C21.41015625 23.11328125 21.41015625 23.11328125 19.25 25.6875 C18.53972656 26.54988281 17.82945313 27.41226563 17.09765625 28.30078125 C14.83794975 30.75457297 13.96622471 31.31573861 10.65307617 31.56787109 C7.22698667 31.65487452 3.80195789 31.70953136 0.375 31.75 C-0.81416016 31.78738281 -2.00332031 31.82476562 -3.22851562 31.86328125 C-12.0266484 31.95220118 -12.0266484 31.95220118 -15.9609375 29.0625 C-16.57195313 28.175625 -17.18296875 27.28875 -17.8125 26.375 C-18.33457031 25.78976563 -18.85664062 25.20453125 -19.39453125 24.6015625 C-21.56432833 21.77738218 -22.75182243 19.61771027 -23.625 16.125 C-22.34696268 10.22636621 -18.70927148 5.89775886 -14.8125 1.375 C-10.48089947 -0.79080027 -4.75775856 0.05618394 0 0 Z M-15.00390625 9.12109375 C-17.06478075 12.81995477 -17.06478075 12.81995477 -17.4375 16.875 C-17.45039062 17.5865625 -17.46328125 18.298125 -17.4765625 19.03125 C-16.44180474 22.6833362 -14.94294628 25.26213877 -11.8125 27.375 C-7.95948162 28.21508061 -4.23970723 28.12257201 -0.3125 28 C1.23630859 28.00966797 1.23630859 28.00966797 2.81640625 28.01953125 C7.41712073 27.95423079 10.35547687 27.87956849 14.34375 25.4609375 C17.48704777 21.90474892 17.51754517 19.24160964 17.48046875 14.63671875 C17.05094199 11.3207722 15.57825646 9.62512373 13.1875 7.375 C9.20010829 5.38130414 4.25974905 6.01498795 -0.125 5.9375 C-1.69411133 5.86885742 -1.69411133 5.86885742 -3.29492188 5.79882812 C-9.85622962 5.56857509 -9.85622962 5.56857509 -15.00390625 9.12109375 Z " fill="#7043F6" transform="translate(74.8125,33.625)"/>
<path d="M0 0 C2.475 0.495 2.475 0.495 5 1 C4.33333333 3.66666667 3.66666667 6.33333333 3 9 C3.73605469 8.96519531 4.47210938 8.93039063 5.23046875 8.89453125 C6.69419922 8.85392578 6.69419922 8.85392578 8.1875 8.8125 C9.15042969 8.77769531 10.11335938 8.74289063 11.10546875 8.70703125 C15.65315829 9.16732371 18.0798943 11.02186961 21.16796875 14.3046875 C21.83441406 15.15289062 22.50085938 16.00109375 23.1875 16.875 C23.86167969 17.71804687 24.53585938 18.56109375 25.23046875 19.4296875 C26.93273146 21.90228985 28.01315441 24.1761034 29 27 C28.34 27 27.68 27 27 27 C25.11490115 24.25529607 23.33464425 21.47983932 21.62890625 18.62109375 C20.37544086 16.57995271 20.37544086 16.57995271 18 14 C14.74188354 13.51850496 12.94116871 13.52941565 10 15 C11.4540625 15.1546875 11.4540625 15.1546875 12.9375 15.3125 C19.0082391 16.97605632 22.58722259 23.07124635 26 28 C26.495 29.485 26.495 29.485 27 31 C26.01 31.495 26.01 31.495 25 32 C24.03874097 30.58531689 23.08111675 29.1681636 22.125 27.75 C21.59132812 26.96109375 21.05765625 26.1721875 20.5078125 25.359375 C19 23 19 23 17 19 C7.1 19 -2.8 19 -13 19 C-13.66 20.32 -14.32 21.64 -15 23 C-15.83497737 24.13931492 -16.68935151 25.26466789 -17.5625 26.375 C-19.86945155 29.5165252 -20.71141595 32.05601802 -21 36 C-24.17762422 32.54606063 -24.81987731 29.65398081 -25 25 C-23.3046875 21.83203125 -23.3046875 21.83203125 -20.875 18.8125 C-20.08867188 17.80832031 -19.30234375 16.80414063 -18.4921875 15.76953125 C-12.57882232 9.19809565 -12.57882232 9.19809565 -7.88671875 8.609375 C-6.83097656 8.65578125 -5.77523437 8.7021875 -4.6875 8.75 C-3.61886719 8.78609375 -2.55023438 8.8221875 -1.44921875 8.859375 C-0.23685547 8.92898437 -0.23685547 8.92898437 1 9 C1 7.68 1 6.36 1 5 C0.34 5 -0.32 5 -1 5 C-0.67 3.35 -0.34 1.7 0 0 Z " fill="#323D6B" transform="translate(73,16)"/>
<path d="M0 0 C1.85237566 2.18917123 2.95606329 3.84622151 3.75 6.625 C5.5996014 11.61892379 9.07072011 18.53536005 14 21 C15.73868744 21.15266612 17.48247501 21.24932596 19.2265625 21.31640625 C20.2578125 21.35830078 21.2890625 21.40019531 22.3515625 21.44335938 C23.43179688 21.48267578 24.51203125 21.52199219 25.625 21.5625 C27.25695312 21.62727539 27.25695312 21.62727539 28.921875 21.69335938 C31.6144517 21.7996453 34.30712253 21.90168057 37 22 C37 22.33 37 22.66 37 23 C35.2984375 23.02126953 35.2984375 23.02126953 33.5625 23.04296875 C22.75767519 23.08856171 22.75767519 23.08856171 13.18359375 27.5234375 C11.69786201 29.1237854 11.69786201 29.1237854 11.5 32.3125 C11.665 33.199375 11.83 34.08625 12 35 C5.375 38.125 5.375 38.125 2 37 C2.33 36.34 2.66 35.68 3 35 C2.03722762 32.62380922 2.03722762 32.62380922 0.625 30.0625 C-1.83620421 25.39446185 -3.15111609 21.93705088 -3.1875 16.625 C-3.20167969 15.68914063 -3.21585938 14.75328125 -3.23046875 13.7890625 C-2.98501043 10.81860078 -2.18486346 8.7166261 -1 6 C-0.62406934 4.0075675 -0.28020455 2.0081326 0 0 Z " fill="#28365A" transform="translate(48,43)"/>
<path d="M0 0 C0.79921875 -0.02900391 1.5984375 -0.05800781 2.421875 -0.08789062 C7.82726112 -0.14567847 11.03462682 0.59579084 15.25 4.3125 C16.125 7.5625 16.125 7.5625 16.25 10.3125 C15.65832031 10.42207031 15.06664063 10.53164062 14.45703125 10.64453125 C9.87074201 11.56478178 6.06785484 12.44910887 2.25 15.3125 C1.92 15.9725 1.59 16.6325 1.25 17.3125 C0.59 17.3125 -0.07 17.3125 -0.75 17.3125 C-1.33265625 16.68859375 -1.9153125 16.0646875 -2.515625 15.421875 C-5.13858947 12.9456498 -7.02023504 12.39101547 -10.5 11.5625 C-11.48484375 11.32015625 -12.4696875 11.0778125 -13.484375 10.828125 C-14.23203125 10.65796875 -14.9796875 10.4878125 -15.75 10.3125 C-15.8984375 7.953125 -15.8984375 7.953125 -15.75 5.3125 C-10.62935709 0.46136461 -6.83388902 0.08109837 0 0 Z " fill="#6D43F8" transform="translate(74.75,66.6875)"/>
<path d="M0 0 C1.97120857 1.97120857 3.34906781 3.6068627 4.875 5.875 C5.2771875 6.43058594 5.679375 6.98617187 6.09375 7.55859375 C9 11.66095344 9 11.66095344 9 14 C9.66 14 10.32 14 11 14 C11.67258667 16.33163378 12.33847444 18.6652039 13 21 C13.18175781 21.6290625 13.36351563 22.258125 13.55078125 22.90625 C15.16017801 30.40743838 14.12072959 37.10838883 11 44 C9.68 44 8.36 44 7 44 C5.5 41.75 5.5 41.75 4 39 C2.70420353 37.63015802 1.38007251 36.2848951 0 35 C3.56077723 27.55309535 3.56077723 27.55309535 5.6875 24.875 C7.55282258 22.21025345 7.81627799 20.2444526 8 17 C6.51218604 13.98475035 6.51218604 13.98475035 4.25 11.25 C3.17492187 9.83460937 3.17492187 9.83460937 2.078125 8.390625 C-1.60386189 4.15495587 -4.57820371 3.61378826 -10 3 C-6.68148291 -0.06324654 -4.47297816 -0.65323196 0 0 Z " fill="#39485B" transform="translate(91,29)"/>
<path d="M0 0 C1.98 0 3.96 0 6 0 C9 5.75 9 5.75 9 8 C9.66 8 10.32 8 11 8 C11.309375 7.05125 11.61875 6.1025 11.9375 5.125 C13 2 13 2 14 0 C15.98 0 17.96 0 20 0 C20 5.94 20 11.88 20 18 C18.02 18 16.04 18 14 18 C13.67 16.02 13.34 14.04 13 12 C12.01 13.485 12.01 13.485 11 15 C10.34 15 9.68 15 9 15 C8.34 14.01 7.68 13.02 7 12 C6.67 13.98 6.34 15.96 6 18 C4.02 18 2.04 18 0 18 C0 12.06 0 6.12 0 0 Z " fill="#324161" transform="translate(15,107)"/>
<path d="M0 0 C10.7771261 -0.43108504 10.7771261 -0.43108504 15 3 C17 5 17 5 17.375 8.875 C17.30091117 12.01522643 17.13506171 12.81836528 15.1875 15.4375 C11.70810722 17.92278055 8.96670067 18.11645066 4.8125 18.0625 C3.224375 18.041875 1.63625 18.02125 0 18 C0 12.06 0 6.12 0 0 Z " fill="#2A3A5C" transform="translate(64,107)"/>
<path d="M0 0 C3.02921527 2.58591547 3.84825878 4.08955268 4.5 8 C3.88466097 11.69203416 2.58383614 13.34016868 0 16 C-3.24441291 17.62220646 -6.50540703 17.70159132 -10 17 C-13.29420787 14.11756811 -14.76884408 12.25851556 -15.5625 7.9375 C-14.87020639 4.32218892 -13.54408967 2.61891584 -11 0 C-7.49055854 -1.75472073 -3.71048867 -0.95563207 0 0 Z " fill="#243458" transform="translate(55,108)"/>
<path d="M0 0 C2.475 0.495 2.475 0.495 5 1 C4.33333333 3.66666667 3.66666667 6.33333333 3 9 C3.73605469 8.96519531 4.47210938 8.93039063 5.23046875 8.89453125 C6.69419922 8.85392578 6.69419922 8.85392578 8.1875 8.8125 C9.15042969 8.77769531 10.11335938 8.74289063 11.10546875 8.70703125 C15.65315829 9.16732371 18.0798943 11.02186961 21.16796875 14.3046875 C21.83441406 15.15289062 22.50085938 16.00109375 23.1875 16.875 C23.86167969 17.71804687 24.53585938 18.56109375 25.23046875 19.4296875 C26.93273146 21.90228985 28.01315441 24.1761034 29 27 C28.34 27 27.68 27 27 27 C25.11490115 24.25529607 23.33464425 21.47983932 21.62890625 18.62109375 C20.37544086 16.57995271 20.37544086 16.57995271 18 14 C14.74188354 13.51850496 12.94116871 13.52941565 10 15 C11.4540625 15.1546875 11.4540625 15.1546875 12.9375 15.3125 C19.0082391 16.97605632 22.58722259 23.07124635 26 28 C26.495 29.485 26.495 29.485 27 31 C26.01 31.495 26.01 31.495 25 32 C24.03874097 30.58531689 23.08111675 29.1681636 22.125 27.75 C21.59132812 26.96109375 21.05765625 26.1721875 20.5078125 25.359375 C19 23 19 23 17 19 C7.1 19 -2.8 19 -13 19 C-13.66 20.32 -14.32 21.64 -15 23 C-16.3050581 24.68889872 -17.63360658 26.3603279 -19 28 C-19.66 27.67 -20.32 27.34 -21 27 C-14.74618834 17.61076233 -14.74618834 17.61076233 -10.46484375 16.11328125 C-8.26310411 15.90043479 -6.20344743 15.82658053 -4 16 C-4.33 15.34 -4.66 14.68 -5 14 C-4.46375 14.33 -3.9275 14.66 -3.375 15 C-0.31258861 16.28943638 1.69939439 16.40415579 5 16 C7.84920053 14.12230858 7.84920053 14.12230858 10 12 C7.69 11.67 5.38 11.34 3 11 C3 11.66 3 12.32 3 13 C2.34 13 1.68 13 1 13 C1 12.01 1 11.02 1 10 C-1.64 10 -4.28 10 -7 10 C-7 9.67 -7 9.34 -7 9 C-4.36 9 -1.72 9 1 9 C1 7.68 1 6.36 1 5 C0.34 5 -0.32 5 -1 5 C-0.67 3.35 -0.34 1.7 0 0 Z " fill="#2F346E" transform="translate(73,16)"/>
<path d="M0 0 C-0.99 0.495 -0.99 0.495 -2 1 C-2.66 0.67 -3.32 0.34 -4 0 C-10.44388517 -0.61258141 -15.26905949 0.00994408 -21 3 C-18.61435923 2.42415568 -16.33317216 1.77772405 -14 1 C-12.31454276 0.90712229 -10.625507 0.87002796 -8.9375 0.875 C-8.05964844 0.87242188 -7.18179688 0.86984375 -6.27734375 0.8671875 C-4 1 -4 1 -2 2 C-2 2.99 -2 3.98 -2 5 C-1.34 5.33 -0.68 5.66 0 6 C-4.455 6.495 -4.455 6.495 -9 7 C-9 7.33 -9 7.66 -9 8 C-14.445 9.485 -14.445 9.485 -20 11 C-21.98 8.36 -23.96 5.72 -26 3 C-24 -1 -24 -1 -20.5 -2.25 C-13.15859071 -3.73162988 -6.5246082 -4.12080518 0 0 Z " fill="#4B3D92" transform="translate(71,82)"/>
<path d="M0 0 C1.98 0 3.96 0 6 0 C6.33 1.32 6.66 2.64 7 4 C7.66 4 8.32 4 9 4 C9.33 2.68 9.66 1.36 10 0 C11.98 0 13.96 0 16 0 C14 5 14 5 12.625 7.3125 C11.64259645 11.53683525 13.84665723 14.41406142 16 18 C14.02 18 12.04 18 10 18 C9.67 16.68 9.34 15.36 9 14 C8.34 14 7.68 14 7 14 C6.67 15.32 6.34 16.64 6 18 C4.02 18 2.04 18 0 18 C0.46792969 17.22076172 0.46792969 17.22076172 0.9453125 16.42578125 C3.5262051 12.11390716 3.5262051 12.11390716 3.375 7.3125 C2.694375 6.1678125 2.694375 6.1678125 2 5 C1.33333333 3.33333333 0.66666667 1.66666667 0 0 Z " fill="#2B3B5D" transform="translate(120,107)"/>
<path d="M0 0 C3.96 0 7.92 0 12 0 C12 1.32 12 2.64 12 4 C10.02 4 8.04 4 6 4 C6 4.99 6 5.98 6 7 C7.98 7 9.96 7 12 7 C12 8.32 12 9.64 12 11 C10.02 11 8.04 11 6 11 C6 11.99 6 12.98 6 14 C7.98 14 9.96 14 12 14 C12 15.32 12 16.64 12 18 C8.04 18 4.08 18 0 18 C0 12.06 0 6.12 0 0 Z " fill="#29385B" transform="translate(87,107)"/>
<path d="M0 0 C1 3 1 3 1 6 C2.6459651 7.68711423 4.31237149 9.3545622 6 11 C6 11.66 6 12.32 6 13 C6.99 12.67 7.98 12.34 9 12 C8.42415568 14.38564077 7.77772405 16.66682784 7 19 C7.33 19.66 7.66 20.32 8 21 C6.51882199 20.71872579 5.04006751 20.42466268 3.5625 20.125 C2.73878906 19.96257812 1.91507813 19.80015625 1.06640625 19.6328125 C0.38449219 19.42398438 -0.29742187 19.21515625 -1 19 C-2 17 -2 17 -2.25 14.0625 C-2.69586188 10.90853355 -2.69586188 10.90853355 -5.02734375 9.3515625 C-8.85281795 7.6122536 -12.15670686 7.44248459 -16.3125 7.3125 C-17.05306641 7.27833984 -17.79363281 7.24417969 -18.55664062 7.20898438 C-20.37058164 7.12706446 -22.18526353 7.06184178 -24 7 C-24 6.67 -24 6.34 -24 6 C-22.84242187 5.96261719 -21.68484375 5.92523438 -20.4921875 5.88671875 C-18.95309439 5.82102575 -17.4140333 5.75457958 -15.875 5.6875 C-14.73417969 5.65366211 -14.73417969 5.65366211 -13.5703125 5.61914062 C-8.71638501 5.38899751 -5.21232914 4.65731044 -1 2 C-0.67 1.34 -0.34 0.68 0 0 Z " fill="#213153" transform="translate(92,60)"/>
<path d="M0 0 C5.70709064 0.46588495 9.15939723 1.93757784 14 5 C14 5.66 14 6.32 14 7 C14.99 6.67 15.98 6.34 17 6 C17.33 6.66 17.66 7.32 18 8 C21.03525486 10.02350324 22.19426202 10.32124018 25.6875 10.625 C26.49574219 10.69976562 27.30398437 10.77453125 28.13671875 10.8515625 C28.75160156 10.90054688 29.36648437 10.94953125 30 11 C30 11.33 30 11.66 30 12 C29.27554688 12.06058594 28.55109375 12.12117188 27.8046875 12.18359375 C26.35449219 12.30927734 26.35449219 12.30927734 24.875 12.4375 C23.92367187 12.51871094 22.97234375 12.59992188 21.9921875 12.68359375 C18.99482286 12.9531713 18.99482286 12.9531713 16.0625 13.59375 C12.51952727 14.06373618 9.63976941 13.6722049 6.125 13.0625 C4.97257812 12.86785156 3.82015625 12.67320313 2.6328125 12.47265625 C1.76398437 12.31667969 0.89515625 12.16070312 0 12 C0 11.67 0 11.34 0 11 C4.455 10.505 4.455 10.505 9 10 C9 9.01 9 8.02 9 7 C1.56621057 6.66547948 -4.19877155 6.86097148 -11 10 C-10 7 -10 7 -7.0625 5.3125 C-2.46349544 3.47289818 2.12631335 3.73523231 7 4 C4.36 3.34 1.72 2.68 -1 2 C-0.67 1.34 -0.34 0.68 0 0 Z " fill="#292E71" transform="translate(60,77)"/>
<path d="M0 0 C4.54075781 4.14010271 7.71842138 8.82390176 11 14 C9.8553125 15.11375 9.8553125 15.11375 8.6875 16.25 C6.5606298 18.4263323 4.7440044 20.52167796 3 23 C-0.93333733 16.0464215 -1.75531177 9.93696471 -1 2 C-0.67 1.34 -0.34 0.68 0 0 Z " fill="#EDF404" transform="translate(48,51)"/>
<path d="M0 0 C2.64282515 4.59072416 2.53328831 8.82169318 2 14 C1.2125521 16.83117107 0.19863212 19.30307774 -1 22 C-1.66 22 -2.32 22 -3 22 C-4.01351664 20.34151823 -5.01120795 18.67334039 -6 17 C-7.31121802 15.64491223 -8.64175118 14.30794331 -10 13 C-9.16855469 11.96939453 -9.16855469 11.96939453 -8.3203125 10.91796875 C-7.59585938 10.01691406 -6.87140625 9.11585937 -6.125 8.1875 C-5.40570313 7.29417969 -4.68640625 6.40085937 -3.9453125 5.48046875 C-1.92059294 2.96429047 -1.92059294 2.96429047 0 0 Z " fill="#EFF603" transform="translate(101,51)"/>
<path d="M0 0 C1.98 0 3.96 0 6 0 C6 4.62 6 9.24 6 14 C7.98 14 9.96 14 12 14 C12 15.32 12 16.64 12 18 C8.04 18 4.08 18 0 18 C0 12.06 0 6.12 0 0 Z " fill="#314060" transform="translate(105,107)"/>
<path d="M0 0 C1.04607422 -0.02449219 2.09214844 -0.04898438 3.16992188 -0.07421875 C10.88836074 -0.10369719 10.88836074 -0.10369719 14.86328125 2.27734375 C16.77882868 4.48001821 17.51229833 5.48417244 17.6875 8.375 C17.25 11.125 17.25 11.125 16.6875 13.375 C16.419375 12.818125 16.15125 12.26125 15.875 11.6875 C15.483125 10.924375 15.09125 10.16125 14.6875 9.375 C14.40390625 8.51132812 14.1203125 7.64765625 13.828125 6.7578125 C11.94775572 4.17849054 11.94775572 4.17849054 9.3527832 3.93920898 C6.30447485 3.80780963 3.29958455 3.84237534 0.25 3.9375 C-1.32491211 3.94620117 -1.32491211 3.94620117 -2.93164062 3.95507812 C-9.40377369 3.99674253 -9.40377369 3.99674253 -15.3125 6.375 C-11.83912792 -1.06794016 -7.55341268 0.00920587 0 0 Z " fill="#4A387F" transform="translate(74.3125,39.625)"/>
<path d="M0 0 C0.33 0.66 0.66 1.32 1 2 C2.155 2.144375 3.31 2.28875 4.5 2.4375 C10.96395896 3.8401674 14.47534042 9.80941817 18 15 C18.495 16.485 18.495 16.485 19 18 C18.01 18.495 18.01 18.495 17 19 C16.03874097 17.58531689 15.08111675 16.1681636 14.125 14.75 C13.59132812 13.96109375 13.05765625 13.1721875 12.5078125 12.359375 C11 10 11 10 9 6 C-0.9 6 -10.8 6 -21 6 C-21.66 7.32 -22.32 8.64 -23 10 C-24.3050581 11.68889872 -25.63360658 13.3603279 -27 15 C-27.66 14.67 -28.32 14.34 -29 14 C-22.74618834 4.61076233 -22.74618834 4.61076233 -18.46484375 3.11328125 C-16.26310411 2.90043479 -14.20344743 2.82658053 -12 3 C-12.33 2.34 -12.66 1.68 -13 1 C-12.46375 1.33 -11.9275 1.66 -11.375 2 C-8.37065456 3.26498755 -6.23232558 3.34386442 -3 3 C-1.12109566 1.62493901 -1.12109566 1.62493901 0 0 Z " fill="#1A2A55" transform="translate(81,29)"/>
<path d="M0 0 C1.670625 0.99 1.670625 0.99 3.375 2 C2.715 3.32 2.055 4.64 1.375 6 C0.11816406 5.52433594 0.11816406 5.52433594 -1.1640625 5.0390625 C-4.8590989 3.92971749 -8.15389627 3.59270398 -12 3.375 C-13.24523437 3.30023438 -14.49046875 3.22546875 -15.7734375 3.1484375 C-16.71445313 3.09945312 -17.65546875 3.05046875 -18.625 3 C-18.955 2.01 -19.285 1.02 -19.625 0 C-13.37158862 -3.33515273 -6.24854783 -3.12982325 0 0 Z " fill="#6841B2" transform="translate(97.625,85)"/>
<path d="M0 0 C2.26783513 1.48440117 4.02170272 3.11590735 6 5 C5.67 5.66 5.34 6.32 5 7 C4.34 6.67 3.68 6.34 3 6 C2.67 6.99 2.34 7.98 2 9 C1.34 8.34 0.68 7.68 0 7 C-4.05261287 6.65509678 -5.54754176 6.69836118 -9 9 C-8.67 7.68 -8.34 6.36 -8 5 C-9.98 5.99 -9.98 5.99 -12 7 C-9.63070063 1.2741932 -6.23987004 -0.99837921 0 0 Z " fill="#6D7784" transform="translate(78,8)"/>
<path d="M0 0 C3.25362744 0.50907096 5.2298435 1.50712298 7.87109375 3.44921875 C7.87109375 3.77921875 7.87109375 4.10921875 7.87109375 4.44921875 C7.25363281 4.39378906 6.63617188 4.33835938 6 4.28125 C1.24784156 4.24508441 -1.24925954 4.61980076 -4.796875 7.96484375 C-7.02462487 10.72739526 -9.12956307 13.51781462 -11.12890625 16.44921875 C-11.8828125 14.83984375 -11.8828125 14.83984375 -12.12890625 12.44921875 C-10.86306447 10.14985439 -9.63979482 8.26413687 -8.06640625 6.19921875 C-7.68291016 5.64492188 -7.29941406 5.090625 -6.90429688 4.51953125 C-4.74144865 1.62623182 -3.6264884 0.52065689 0 0 Z " fill="#7243EA" transform="translate(62.12890625,28.55078125)"/>
<path d="M0 0 C1.32 0 2.64 0 4 0 C4.33 0.66 4.66 1.32 5 2 C8.03525486 4.02350324 9.19426202 4.32124018 12.6875 4.625 C13.89986328 4.73714844 13.89986328 4.73714844 15.13671875 4.8515625 C15.75160156 4.90054688 16.36648437 4.94953125 17 5 C17 5.33 17 5.66 17 6 C15.91332031 6.09087891 15.91332031 6.09087891 14.8046875 6.18359375 C13.83789062 6.26738281 12.87109375 6.35117188 11.875 6.4375 C10.92367187 6.51871094 9.97234375 6.59992188 8.9921875 6.68359375 C5.99482286 6.9531713 5.99482286 6.9531713 3.0625 7.59375 C-0.48047273 8.06373618 -3.36023059 7.6722049 -6.875 7.0625 C-8.02742188 6.86785156 -9.17984375 6.67320313 -10.3671875 6.47265625 C-11.23601563 6.31667969 -12.10484375 6.16070312 -13 6 C-13 5.67 -13 5.34 -13 5 C-12.09507813 4.96132812 -12.09507813 4.96132812 -11.171875 4.921875 C-5.92185193 4.54929272 -3.56598976 4.09428454 0 0 Z " fill="#1F2E57" transform="translate(73,83)"/>
<path d="M0 0 C2.22597423 1.93579577 3.75504263 4.23798742 5.375 6.6875 C5.82488281 7.31333984 6.27476563 7.93917969 6.73828125 8.58398438 C9.17856144 12.12572842 10.63076215 14.54204591 10 19 C6.15232833 14.22888713 6.15232833 14.22888713 4.4921875 11.734375 C1.45609596 7.35675465 -0.57804263 4.60040113 -5.9375 3.4375 C-7.28721215 3.25498467 -8.64135604 3.09550558 -10 3 C-6.68082012 -0.06385835 -4.47487736 -0.7183933 0 0 Z " fill="#8549F0" transform="translate(91,29)"/>
<path d="M0 0 C2.97 0 5.94 0 9 0 C9 0.66 9 1.32 9 2 C9.66 2 10.32 2 11 2 C11 1.34 11 0.68 11 0 C13.97 0 16.94 0 20 0 C19.21625 0.61875 18.4325 1.2375 17.625 1.875 C15.03162353 3.89858661 15.03162353 3.89858661 13 6 C9.14408989 6.51412135 7.49983104 6.34079389 4.25 4.125 C2.81471152 2.76944977 1.3959888 1.3959888 0 0 Z " fill="#6A41E6" transform="translate(65,27)"/>
<path d="M0 0 C1.65 0.33 3.3 0.66 5 1 C4.33333333 3.66666667 3.66666667 6.33333333 3 9 C6.3 9 9.6 9 13 9 C13 9.33 13 9.66 13 10 C9.7 10 6.4 10 3 10 C3 10.99 3 11.98 3 13 C2.34 13 1.68 13 1 13 C1 12.01 1 11.02 1 10 C-1.64 10 -4.28 10 -7 10 C-7 9.67 -7 9.34 -7 9 C-4.36 9 -1.72 9 1 9 C1 7.68 1 6.36 1 5 C0.34 5 -0.32 5 -1 5 C-0.67 3.35 -0.34 1.7 0 0 Z " fill="#26355B" transform="translate(73,16)"/>
<path d="M0 0 C2.5 0.125 2.5 0.125 3.5 1.125 C3.6875 4.0625 3.6875 4.0625 3.5 7.125 C2.84 7.785 2.18 8.445 1.5 9.125 C-2.03571429 8.58928571 -2.03571429 8.58928571 -3.5 7.125 C-3.625 4.125 -3.625 4.125 -3.5 1.125 C-2.5 0.125 -2.5 0.125 0 0 Z " fill="#EDEED2" transform="translate(49.5,111.875)"/>
<path d="M0 0 C2.9654455 1.05941813 5.28494718 2.36072282 8 4 C8 4.66 8 5.32 8 6 C5.40125125 5.55450021 3.19408057 5.0942677 0.8125 3.9375 C-4.5727498 2.14241673 -10.56841137 2.43198943 -16 4 C-11.29295859 -0.92099784 -6.59225939 -0.68134761 0 0 Z " fill="#884AEE" transform="translate(95,79)"/>
<path d="M0 0 C7.82790698 -0.61395349 7.82790698 -0.61395349 11.625 1.375 C15.16976907 5.29290266 18.08641219 9.60023051 21 14 C20.34 14.66 19.68 15.32 19 16 C18.03874097 14.58531689 17.08111675 13.1681636 16.125 11.75 C15.59132813 10.96109375 15.05765625 10.1721875 14.5078125 9.359375 C13 7 13 7 12.1875 4.75 C11.07450174 2.67650847 11.07450174 2.67650847 8.1796875 2.390625 C7.08914062 2.34421875 5.99859375 2.2978125 4.875 2.25 C3.23144531 2.16492187 3.23144531 2.16492187 1.5546875 2.078125 C0.71164063 2.05234375 -0.13140625 2.0265625 -1 2 C-0.67 1.34 -0.34 0.68 0 0 Z " fill="#282E70" transform="translate(79,32)"/>
<path d="M0 0 C0.78375 0.495 1.5675 0.99 2.375 1.5 C1.385 1.995 1.385 1.995 0.375 2.5 C-0.285 2.17 -0.945 1.84 -1.625 1.5 C-8.14832715 0.87986652 -12.78626344 1.64021066 -18.625 4.5 C-19.615 4.5 -20.605 4.5 -21.625 4.5 C-21.625 3.84 -21.625 3.18 -21.625 2.5 C-14.34486306 -1.81415522 -8.04773905 -3.33009892 0 0 Z " fill="#8649F1" transform="translate(68.625,80.5)"/>
<path d="M0 0 C1.65 0.99 3.3 1.98 5 3 C3.6302836 6.99500618 1.74277578 9.80009492 -1 13 C-4.3 12.01 -7.6 11.02 -11 10 C-10.67 9.34 -10.34 8.68 -10 8 C-6.65626525 8.55728913 -3.96687001 9.35173889 -1 11 C-1.33 10.01 -1.66 9.02 -2 8 C-1.01 8 -0.02 8 1 8 C1 7.34 1 6.68 1 6 C1.66 6 2.32 6 3 6 C3 5.01 3 4.02 3 3 C1.68 2.34 0.36 1.68 -1 1 C-0.67 0.67 -0.34 0.34 0 0 Z " fill="#343F6A" transform="translate(100,80)"/>
<path d="M0 0 C1.91704048 2.2655933 3.00985972 4.03023646 3.9375 6.875 C4.89613008 10.15644743 4.89613008 10.15644743 7.1875 13.1875 C7.785625 14.115625 8.38375 15.04375 9 16 C8.67 16.99 8.34 17.98 8 19 C7.52949219 18.278125 7.05898438 17.55625 6.57421875 16.8125 C5.95160156 15.884375 5.32898437 14.95625 4.6875 14 C4.07261719 13.071875 3.45773438 12.14375 2.82421875 11.1875 C1.92123047 10.1046875 1.92123047 10.1046875 1 9 C0.01 9 -0.98 9 -2 9 C-1.34 6.03 -0.68 3.06 0 0 Z " fill="#2B3A56" transform="translate(48,43)"/>
<path d="M0 0 C0 0.33 0 0.66 0 1 C-2.31 1.33 -4.62 1.66 -7 2 C-6.34 2.66 -5.68 3.32 -5 4 C-5.99 4.495 -5.99 4.495 -7 5 C-7.66 4.67 -8.32 4.34 -9 4 C-10.99954746 3.95745644 -13.00041636 3.95919217 -15 4 C-15.99 4 -16.98 4 -18 4 C-12.55247702 -2.20412339 -7.78579978 -1.27243653 0 0 Z " fill="#30356E" transform="translate(74,26)"/>
<path d="M0 0 C2.475 0.495 2.475 0.495 5 1 C5 2.98 5 4.96 5 7 C3.35 7.33 1.7 7.66 0 8 C0 5.36 0 2.72 0 0 Z " fill="#FAFADA" transform="translate(70,112)"/>
<path d="M0 0 C0.66 0.66 1.32 1.32 2 2 C1.14277344 2.04898438 0.28554687 2.09796875 -0.59765625 2.1484375 C-6.66756456 2.54534244 -12.24397411 2.99208399 -18 5 C-18 4.34 -18 3.68 -18 3 C-12.09697795 0.65553734 -6.39979202 -1.04182661 0 0 Z " fill="#7143CD" transform="translate(69,86)"/>
<path d="M0 0 C2 2 2 2 2 5 C-3.94 4.01 -3.94 4.01 -10 3 C-5.82431815 -0.13176139 -4.92670782 -0.53551172 0 0 Z " fill="#8148F6" transform="translate(91,29)"/>
<path d="M0 0 C2.97 0 5.94 0 9 0 C9 0.99 9 1.98 9 3 C9.66 3.33 10.32 3.66 11 4 C8.875 4.75 8.875 4.75 6 5 C2.6875 3.125 2.6875 3.125 0 1 C0 0.67 0 0.34 0 0 Z " fill="#7A46F7" transform="translate(65,27)"/>
<path d="M0 0 C0.33 0.66 0.66 1.32 1 2 C-1.31 4.97 -3.62 7.94 -6 11 C-6.33 9.68 -6.66 8.36 -7 7 C-4.6875 4.375 -4.6875 4.375 -2 2 C-1.34 1.34 -0.68 0.68 0 0 Z " fill="#5F3DEF" transform="translate(57,34)"/>
<path d="M0 0 C0.66 0 1.32 0 2 0 C2 0.66 2 1.32 2 2 C1.34 2 0.68 2 0 2 C-0.2475 2.556875 -0.495 3.11375 -0.75 3.6875 C-2.21606015 6.39971127 -4.02989471 8.63587365 -6 11 C-6.66 10.67 -7.32 10.34 -8 10 C-6.71580959 8.32756598 -5.42242815 6.66218553 -4.125 5 C-3.04605469 3.6078125 -3.04605469 3.6078125 -1.9453125 2.1875 C-1.30335937 1.465625 -0.66140625 0.74375 0 0 Z " fill="#252D6B" transform="translate(60,33)"/>
<path d="M0 0 C0.66 0.66 1.32 1.32 2 2 C0.68 2.33 -0.64 2.66 -2 3 C-2 3.66 -2 4.32 -2 5 C-1.34 5 -0.68 5 0 5 C0 6.65 0 8.3 0 10 C-1.32 8.35 -2.64 6.7 -4 5 C-2.25 1.125 -2.25 1.125 0 0 Z " fill="#38436B" transform="translate(49,80)"/>
<path d="M0 0 C5.80205656 5.64524422 5.80205656 5.64524422 8 9 C8 9.66 8 10.32 8 11 C7.34 11 6.68 11 6 11 C4.4921875 9.1015625 4.4921875 9.1015625 2.875 6.625 C2.33617188 5.81289063 1.79734375 5.00078125 1.2421875 4.1640625 C0 2 0 2 0 0 Z " fill="#313D66" transform="translate(94,32)"/>
<path d="M0 0 C2.5625 2.0625 2.5625 2.0625 5 5 C4.8125 8.8125 4.8125 8.8125 4 12 C1.78600697 8.20458337 0.99019802 4.24370579 0 0 Z " fill="#3F3577" transform="translate(87,41)"/>
<path d="M0 0 C1.9375 0.5625 1.9375 0.5625 4 2 C4.75 5.625 4.75 5.625 5 9 C0.57142857 3.85714286 0.57142857 3.85714286 0 0 Z " fill="#7845DF" transform="translate(96,39)"/>
<path d="M0 0 C1.32 0.33 2.64 0.66 4 1 C3.67 3.64 3.34 6.28 3 9 C0.90250005 6.64031256 0.03094296 5.45383006 -0.1875 2.25 C-0.125625 1.5075 -0.06375 0.765 0 0 Z " fill="#373296" transform="translate(49,43)"/>
</svg>
